<svg width="24" height="24" viewBox="0 0 24 24" fill="none" xmlns="http://www.w3.org/2000/svg">
<path fill-rule="evenodd" clip-rule="evenodd" d="M12 0C18.6227 0 24 5.37013 24 12C24 18.6227 18.6299 24 12 24C5.37732 24 0 18.6299 0 12C0 5.37732 5.37013 0 12 0ZM9.06299 7.62328C9.47331 7.62328 9.84763 7.65927 10.186 7.73125C10.5243 7.80324 10.8122 7.92562 11.057 8.08398C11.2945 8.24955 11.4817 8.46551 11.6185 8.73905C11.7481 9.0054 11.8128 9.35093 11.8128 9.74685C11.8128 10.1788 11.7121 10.5387 11.5177 10.8338C11.3161 11.1218 11.0282 11.3593 10.6395 11.5465C11.1722 11.6977 11.5609 11.964 11.82 12.3455C12.0792 12.7271 12.2088 13.1878 12.2088 13.7277C12.2088 14.1668 12.1224 14.5411 11.9568 14.8578C11.784 15.1746 11.5609 15.4337 11.2801 15.6353C10.9994 15.8368 10.6683 15.988 10.3011 16.0816C9.94121 16.1752 9.56689 16.2256 9.17816 16.2256H5.0102V7.63047H9.06299V7.62328ZM14.1308 8.31434H17.6149V9.16377H14.1308V8.31434ZM14.9082 14.7211C15.1674 14.973 15.5345 15.0954 16.0168 15.0954C16.3623 15.0954 16.6647 15.009 16.9094 14.8362C17.1542 14.6635 17.3053 14.4763 17.3629 14.2819H18.8674C18.6227 15.0306 18.2555 15.5633 17.7588 15.8872C17.2621 16.2112 16.6575 16.3695 15.9592 16.3695C15.4697 16.3695 15.0306 16.2903 14.6347 16.132C14.2388 15.9736 13.9076 15.7505 13.6269 15.4625C13.3533 15.1746 13.1446 14.829 12.9934 14.4259C12.8494 14.0228 12.7702 13.5765 12.7702 13.1014C12.7702 12.6335 12.8494 12.2016 13.0006 11.7984C13.159 11.3953 13.3677 11.0498 13.6557 10.7546C13.9364 10.4595 14.2747 10.2292 14.6635 10.0636C15.0522 9.89082 15.4841 9.81164 15.9664 9.81164C16.4919 9.81164 16.9526 9.91242 17.3485 10.1212C17.7445 10.3227 18.0684 10.6035 18.3203 10.949C18.5723 11.2945 18.7523 11.6905 18.8674 12.1296C18.9826 12.5687 19.0186 13.0294 18.9898 13.5189H14.4979C14.4979 14.0084 14.6635 14.4763 14.9226 14.7211H14.9082ZM16.8734 11.4529C16.6719 11.2298 16.3263 11.1074 15.9088 11.1074C15.6353 11.1074 15.4121 11.1506 15.2322 11.2442C15.0522 11.3377 14.9082 11.4529 14.8002 11.5897C14.6923 11.7265 14.6131 11.8704 14.5699 12.0288C14.5267 12.18 14.4979 12.3167 14.4907 12.4391H17.2765C17.2334 12 17.0822 11.6833 16.8806 11.4529H16.8734ZM8.82544 11.093C9.16377 11.093 9.43731 11.0138 9.66047 10.8554C9.87643 10.6971 9.9844 10.4379 9.9844 10.078C9.9844 9.87643 9.94841 9.71086 9.87643 9.58128C9.80444 9.45171 9.70366 9.35093 9.58128 9.27894C9.45891 9.20696 9.32214 9.15657 9.16377 9.12777C9.0054 9.09898 8.84703 9.08458 8.68146 9.08458H6.91062V11.093H8.82544ZM8.92622 14.7499C9.11338 14.7499 9.28614 14.7355 9.45171 14.6923C9.62448 14.6563 9.76845 14.5987 9.89802 14.5123C10.0204 14.4259 10.1284 14.3179 10.2076 14.1668C10.2867 14.0228 10.3227 13.8356 10.3227 13.6125C10.3227 13.1734 10.2004 12.8566 9.94841 12.6623C9.70366 12.4751 9.37253 12.3815 8.96221 12.3815H6.91062V14.7499H8.93341V14.757L8.92622 14.7499Z" fill="#D4D4D4"/>
</svg>
