<svg width="25" height="24" viewBox="0 0 25 24" fill="none" xmlns="http://www.w3.org/2000/svg">
<path d="M12.305 0C5.51003 0 0 5.5085 0 12.3038C0 17.74 3.52576 22.3519 8.41497 23.9789C9.02991 24.0927 9.25574 23.712 9.25574 23.387C9.25574 23.0936 9.24425 22.1243 9.23904 21.0962C5.81567 21.8405 5.09332 19.6445 5.09332 19.6445C4.53358 18.2224 3.72708 17.8443 3.72708 17.8443C2.61069 17.0806 3.81123 17.0963 3.81123 17.0963C5.0469 17.1831 5.69755 18.3642 5.69755 18.3642C6.79502 20.2452 8.57614 19.7014 9.27832 19.3871C9.38872 18.5918 9.70768 18.0491 10.0595 17.7418C7.32648 17.4306 4.45329 16.3756 4.45329 11.6612C4.45329 10.318 4.93399 9.22033 5.72119 8.35871C5.59341 8.04876 5.17226 6.7974 5.84037 5.10263C5.84037 5.10263 6.87367 4.77194 9.22514 6.36384C10.2066 6.09114 11.2593 5.9545 12.305 5.94987C13.3508 5.9545 14.4043 6.09114 15.3877 6.36384C17.7363 4.77194 18.7682 5.10263 18.7682 5.10263C19.4379 6.7974 19.0166 8.04876 18.8888 8.35871C19.6778 9.22033 20.1552 10.3179 20.1552 11.6612C20.1552 16.3868 17.2766 17.4274 14.5366 17.732C14.9779 18.1138 15.3712 18.8626 15.3712 20.0105C15.3712 21.6567 15.3569 22.9817 15.3569 23.387C15.3569 23.7144 15.5784 24.098 16.2022 23.9772C21.0887 22.3485 24.61 17.7382 24.61 12.3038C24.61 5.5085 19.1007 0 12.305 0Z" fill="#D4D4D4"/>
<path d="M4.60849 17.527C4.58146 17.5881 4.48515 17.6064 4.39762 17.5645C4.30835 17.5244 4.25817 17.441 4.28712 17.3796C4.31366 17.3167 4.40997 17.2992 4.49905 17.3414C4.58851 17.3815 4.63946 17.4656 4.60849 17.527ZM5.21377 18.067C5.1551 18.1214 5.04035 18.0961 4.96247 18.0102C4.88199 17.9244 4.86693 17.8097 4.92647 17.7544C4.98698 17.7001 5.09826 17.7255 5.17894 17.8114C5.25942 17.8981 5.27515 18.012 5.21377 18.067ZM5.62904 18.7579C5.55357 18.8103 5.43024 18.7612 5.35409 18.6518C5.27872 18.5424 5.27872 18.4112 5.35574 18.3586C5.43217 18.306 5.55357 18.3533 5.63078 18.4619C5.70605 18.5731 5.70615 18.7043 5.62904 18.7579ZM6.33122 19.5582C6.26376 19.6325 6.12016 19.6126 6.01497 19.5111C5.90746 19.4119 5.87745 19.2711 5.9451 19.1967C6.01333 19.1222 6.1578 19.1431 6.26376 19.2438C6.3706 19.3428 6.40312 19.4846 6.33122 19.5582ZM7.23877 19.8283C7.20914 19.9246 7.07075 19.9685 6.9314 19.9275C6.79223 19.8854 6.70113 19.7725 6.72921 19.6751C6.75817 19.5781 6.89714 19.5325 7.03755 19.5763C7.17652 19.6183 7.26772 19.7303 7.23877 19.8283ZM8.27177 19.9429C8.27525 20.0444 8.15703 20.1285 8.01072 20.1304C7.86355 20.1336 7.74456 20.0514 7.74301 19.9517C7.74301 19.8492 7.85853 19.7658 8.00561 19.7634C8.15191 19.7605 8.27177 19.842 8.27177 19.9429ZM9.28644 19.904C9.304 20.003 9.20229 20.1047 9.05705 20.1317C8.91422 20.1578 8.782 20.0967 8.76376 19.9986C8.74601 19.897 8.84965 19.7954 8.99219 19.7691C9.13772 19.7438 9.26791 19.8033 9.28644 19.904Z" fill="#D4D4D4"/>
</svg>
